<svg aria-roledescription="mindmap" role="graphics-document document" style="overflow: hidden; max-width: 100%;" xmlns="http://www.w3.org/2000/svg" width="100%" id="graph-div" height="100%" xmlns:xlink="http://www.w3.org/1999/xlink" xmlns:ev="http://www.w3.org/2001/xml-events"><style>@import url("https://cdnjs.cloudflare.com/ajax/libs/font-awesome/6.4.2/css/all.min.css");'</style><g id="viewport-20231013161841173" class="svg-pan-zoom_viewport" transform="matrix(1.1328800916671753,0,0,1.1328800916671753,215.83888244628906,160.2256622314453)" style="transform: matrix(1.13288, 0, 0, 1.13288, 215.839, 160.226);"><style>#graph-div{font-family:"trebuchet ms",verdana,arial,sans-serif;font-size:16px;fill:#ccc;}#graph-div .error-icon{fill:#a44141;}#graph-div .error-text{fill:#ddd;stroke:#ddd;}#graph-div .edge-thickness-normal{stroke-width:2px;}#graph-div .edge-thickness-thick{stroke-width:3.5px;}#graph-div .edge-pattern-solid{stroke-dasharray:0;}#graph-div .edge-pattern-dashed{stroke-dasharray:3;}#graph-div .edge-pattern-dotted{stroke-dasharray:2;}#graph-div .marker{fill:lightgrey;stroke:lightgrey;}#graph-div .marker.cross{stroke:lightgrey;}#graph-div svg{font-family:"trebuchet ms",verdana,arial,sans-serif;font-size:16px;}#graph-div .edge{stroke-width:3;}#graph-div .section--1 rect,#graph-div .section--1 path,#graph-div .section--1 circle,#graph-div .section--1 polygon,#graph-div .section--1 path{fill:#1f2020;}#graph-div .section--1 text{fill:lightgrey;}#graph-div .node-icon--1{font-size:40px;color:lightgrey;}#graph-div .section-edge--1{stroke:#1f2020;}#graph-div .edge-depth--1{stroke-width:17;}#graph-div .section--1 line{stroke:#e0dfdf;stroke-width:3;}#graph-div .disabled,#graph-div .disabled circle,#graph-div .disabled text{fill:lightgray;}#graph-div .disabled text{fill:#efefef;}#graph-div .section-0 rect,#graph-div .section-0 path,#graph-div .section-0 circle,#graph-div .section-0 polygon,#graph-div .section-0 path{fill:#0b0000;}#graph-div .section-0 text{fill:lightgrey;}#graph-div .node-icon-0{font-size:40px;color:lightgrey;}#graph-div .section-edge-0{stroke:#0b0000;}#graph-div .edge-depth-0{stroke-width:14;}#graph-div .section-0 line{stroke:#f4ffff;stroke-width:3;}#graph-div .disabled,#graph-div .disabled circle,#graph-div .disabled text{fill:lightgray;}#graph-div .disabled text{fill:#efefef;}#graph-div .section-1 rect,#graph-div .section-1 path,#graph-div .section-1 circle,#graph-div .section-1 polygon,#graph-div .section-1 path{fill:#4d1037;}#graph-div .section-1 text{fill:lightgrey;}#graph-div .node-icon-1{font-size:40px;color:lightgrey;}#graph-div .section-edge-1{stroke:#4d1037;}#graph-div .edge-depth-1{stroke-width:11;}#graph-div .section-1 line{stroke:#b2efc8;stroke-width:3;}#graph-div .disabled,#graph-div .disabled circle,#graph-div .disabled text{fill:lightgray;}#graph-div .disabled text{fill:#efefef;}#graph-div .section-2 rect,#graph-div .section-2 path,#graph-div .section-2 circle,#graph-div .section-2 polygon,#graph-div .section-2 path{fill:#3f5258;}#graph-div .section-2 text{fill:lightgrey;}#graph-div .node-icon-2{font-size:40px;color:lightgrey;}#graph-div .section-edge-2{stroke:#3f5258;}#graph-div .edge-depth-2{stroke-width:8;}#graph-div .section-2 line{stroke:#c0ada7;stroke-width:3;}#graph-div .disabled,#graph-div .disabled circle,#graph-div .disabled text{fill:lightgray;}#graph-div .disabled text{fill:#efefef;}#graph-div .section-3 rect,#graph-div .section-3 path,#graph-div .section-3 circle,#graph-div .section-3 polygon,#graph-div .section-3 path{fill:#4f2f1b;}#graph-div .section-3 text{fill:lightgrey;}#graph-div .node-icon-3{font-size:40px;color:lightgrey;}#graph-div .section-edge-3{stroke:#4f2f1b;}#graph-div .edge-depth-3{stroke-width:5;}#graph-div .section-3 line{stroke:#b0d0e4;stroke-width:3;}#graph-div .disabled,#graph-div .disabled circle,#graph-div .disabled text{fill:lightgray;}#graph-div .disabled text{fill:#efefef;}#graph-div .section-4 rect,#graph-div .section-4 path,#graph-div .section-4 circle,#graph-div .section-4 polygon,#graph-div .section-4 path{fill:#6e0a0a;}#graph-div .section-4 text{fill:lightgrey;}#graph-div .node-icon-4{font-size:40px;color:lightgrey;}#graph-div .section-edge-4{stroke:#6e0a0a;}#graph-div .edge-depth-4{stroke-width:2;}#graph-div .section-4 line{stroke:#91f5f5;stroke-width:3;}#graph-div .disabled,#graph-div .disabled circle,#graph-div .disabled text{fill:lightgray;}#graph-div .disabled text{fill:#efefef;}#graph-div .section-5 rect,#graph-div .section-5 path,#graph-div .section-5 circle,#graph-div .section-5 polygon,#graph-div .section-5 path{fill:#3b0048;}#graph-div .section-5 text{fill:lightgrey;}#graph-div .node-icon-5{font-size:40px;color:lightgrey;}#graph-div .section-edge-5{stroke:#3b0048;}#graph-div .edge-depth-5{stroke-width:-1;}#graph-div .section-5 line{stroke:#c4ffb7;stroke-width:3;}#graph-div .disabled,#graph-div .disabled circle,#graph-div .disabled text{fill:lightgray;}#graph-div .disabled text{fill:#efefef;}#graph-div .section-6 rect,#graph-div .section-6 path,#graph-div .section-6 circle,#graph-div .section-6 polygon,#graph-div .section-6 path{fill:#995a01;}#graph-div .section-6 text{fill:lightgrey;}#graph-div .node-icon-6{font-size:40px;color:lightgrey;}#graph-div .section-edge-6{stroke:#995a01;}#graph-div .edge-depth-6{stroke-width:-4;}#graph-div .section-6 line{stroke:#66a5fe;stroke-width:3;}#graph-div .disabled,#graph-div .disabled circle,#graph-div .disabled text{fill:lightgray;}#graph-div .disabled text{fill:#efefef;}#graph-div .section-7 rect,#graph-div .section-7 path,#graph-div .section-7 circle,#graph-div .section-7 polygon,#graph-div .section-7 path{fill:#154706;}#graph-div .section-7 text{fill:lightgrey;}#graph-div .node-icon-7{font-size:40px;color:lightgrey;}#graph-div .section-edge-7{stroke:#154706;}#graph-div .edge-depth-7{stroke-width:-7;}#graph-div .section-7 line{stroke:#eab8f9;stroke-width:3;}#graph-div .disabled,#graph-div .disabled circle,#graph-div .disabled text{fill:lightgray;}#graph-div .disabled text{fill:#efefef;}#graph-div .section-8 rect,#graph-div .section-8 path,#graph-div .section-8 circle,#graph-div .section-8 polygon,#graph-div .section-8 path{fill:#161722;}#graph-div .section-8 text{fill:lightgrey;}#graph-div .node-icon-8{font-size:40px;color:lightgrey;}#graph-div .section-edge-8{stroke:#161722;}#graph-div .edge-depth-8{stroke-width:-10;}#graph-div .section-8 line{stroke:#e9e8dd;stroke-width:3;}#graph-div .disabled,#graph-div .disabled circle,#graph-div .disabled text{fill:lightgray;}#graph-div .disabled text{fill:#efefef;}#graph-div .section-9 rect,#graph-div .section-9 path,#graph-div .section-9 circle,#graph-div .section-9 polygon,#graph-div .section-9 path{fill:#00296f;}#graph-div .section-9 text{fill:lightgrey;}#graph-div .node-icon-9{font-size:40px;color:lightgrey;}#graph-div .section-edge-9{stroke:#00296f;}#graph-div .edge-depth-9{stroke-width:-13;}#graph-div .section-9 line{stroke:#ffd690;stroke-width:3;}#graph-div .disabled,#graph-div .disabled circle,#graph-div .disabled text{fill:lightgray;}#graph-div .disabled text{fill:#efefef;}#graph-div .section-10 rect,#graph-div .section-10 path,#graph-div .section-10 circle,#graph-div .section-10 polygon,#graph-div .section-10 path{fill:#01629c;}#graph-div .section-10 text{fill:lightgrey;}#graph-div .node-icon-10{font-size:40px;color:lightgrey;}#graph-div .section-edge-10{stroke:#01629c;}#graph-div .edge-depth-10{stroke-width:-16;}#graph-div .section-10 line{stroke:#fe9d63;stroke-width:3;}#graph-div .disabled,#graph-div .disabled circle,#graph-div .disabled text{fill:lightgray;}#graph-div .disabled text{fill:#efefef;}#graph-div .section-root rect,#graph-div .section-root path,#graph-div .section-root circle,#graph-div .section-root polygon{fill:hsl(180, 1.5873015873%, 48.3529411765%);}#graph-div .section-root text{fill:#2c2c2c;}#graph-div .icon-container{height:100%;display:flex;justify-content:center;align-items:center;}#graph-div .edge{fill:none;}#graph-div .mindmap-node-label{dy:1em;alignment-baseline:middle;text-anchor:middle;dominant-baseline:middle;text-align:center;}#graph-div :root{--mermaid-font-family:"trebuchet ms",verdana,arial,sans-serif;}</style><g></g><g></g><g class="mindmap-edges"><path class="edge section-edge-0 edge-depth-1" d="M 295.2137417418848,123.40504068256396 L 300.8813221936465,92.76111777406535 L306.5489026454082,62.11719486556673"></path><path class="edge section-edge-0 edge-depth-1" d="M 279.0651769681909,131.45505137616271 L 229.91722973217452,106.91935346277447 L180.76928249615816,82.38365554938622"></path><path class="edge section-edge-0 edge-depth-1" d="M 277.653081324817,140.38907173154377 L 190.39288108370027,153.53267742107474 L103.13268084258354,166.6762831106057"></path><path class="edge section-edge-0 edge-depth-0" d="M 410.4106581529691,195.07840261688955 L 358.2024767434591,169.8769985216275 L305.9942953339491,144.67559442636554"></path><path class="edge section-edge-1 edge-depth-1" d="M 512.946075961899,117.1406170001547 L 571.9263033972657,94.48299306545923 L630.9065308326323,71.82536913076375"></path><path class="edge section-edge-1 edge-depth-1" d="M 493.73879994786034,108.4517029977994 L 482.54978927732304,78.20985123475353 L471.36077860678574,47.96799947170766"></path><path class="edge section-edge-1 edge-depth-0" d="M 434.24313327908345,190.71718335020716 L 461.4314647940215,162.0594034560849 L488.61979630895956,133.4016235619627"></path><path class="edge section-edge-2 edge-depth-1" d="M 378.5881343060459,307.3335000091111 L 389.0371258027943,339.07919318373945 L399.48611729954274,370.8248863583678"></path><path class="edge section-edge-2 edge-depth-1" d="M 388.71402292145035,290.7405854753689 L 468.70001278292193,278.0811576963654 L548.6860026443935,265.42172991736186"></path><path class="edge section-edge-2 edge-depth-1" d="M 360.30860052823124,286.7359417652419 L 308.4416839540802,262.50240880018123 L256.57476737992914,238.2688758351206"></path><path class="edge section-edge-2 edge-depth-1" d="M 358.94668020574466,294.28752229800267 L 281.8776850677831,300.4835831469493 L204.8086899298215,306.6796439958959"></path><path class="edge section-edge-2 edge-depth-1" d="M 388.0823751718754,297.96561072393536 L 449.0700797666019,318.9491626780783 L510.0577843613284,339.9327146322213"></path><path class="edge section-edge-2 edge-depth-1" d="M 362.42176157204256,302.74392002266666 L 329.54316305560724,330.41366961481606 L296.6645645391719,358.08341920696546"></path><path class="edge section-edge-2 edge-depth-0" d="M 416.7232064940438,214.76032829805524 L 398.90881389192145,247.34228051569278 L381.09442128979913,279.9242327333303"></path><path class="edge section-edge-3 edge-depth-0" d="M 438.8978277942957,200.79883792402006 L 533.6815261137883,195.73481113210175 L628.4652244332809,190.6707843401835"></path></g><g class="mindmap-nodes"><g transform="translate(343.594193608336, 182.69910444266282)" class="mindmap-node section--1 section-root"><g transform="translate(80.32499694824219, 18.9)"><circle r="80.32499694824219" class="node-bkg node-circle" id="node-0"></circle></g><g transform="translate(80.32499694824219, 5)" text-anchor="middle" dominant-baseline="middle" alignment-baseline="middle" dy="1em"><g><rect class="background"></rect><text y="-10.1"><tspan dy="1.1em" y="-0.1em" x="0" class="text-outer-tspan"><tspan font-weight="normal" class="text-inner-tspan" font-style="normal">Sistemas</tspan><tspan font-weight="normal" class="text-inner-tspan" font-style="normal"> Multitarea</tspan></tspan></text></g></g></g><g transform="translate(217.39409575504703, 119.25489260059226)" class="mindmap-node section-0"><g><path d="M0 32.8 v-27.799999999999997 q0,-5 5,-5 h140.18333435058594 q5,0 5,5 v32.8 H0 Z" class="node-bkg node-no-border" id="node-1"></path><line y2="37.8" x2="150.18333435058594" y1="37.8" x1="0" class="node-line-0"></line></g><g transform="translate(75.09166717529297, 5)" text-anchor="middle" dominant-baseline="middle" alignment-baseline="middle" dy="1em"><g><rect class="background"></rect><text y="-10.1"><tspan dy="1.1em" y="-0.1em" x="0" class="text-outer-tspan"><tspan font-weight="normal" class="text-inner-tspan" font-style="normal">Conceptos</tspan><tspan font-weight="normal" class="text-inner-tspan" font-style="normal"> Básicos</tspan></tspan></text></g></g></g><g transform="translate(266.32688069401354, 28.46734294753844)" class="mindmap-node section-0"><g><path d="M0 32.8 v-27.799999999999997 q0,-5 5,-5 h75.9000015258789 q5,0 5,5 v32.8 H0 Z" class="node-bkg node-no-border" id="node-2"></path><line y2="37.8" x2="85.9000015258789" y1="37.8" x1="0" class="node-line-0"></line></g><g transform="translate(42.95000076293945, 5)" text-anchor="middle" dominant-baseline="middle" alignment-baseline="middle" dy="1em"><g><rect class="background"></rect><text y="-10.1"><tspan dy="1.1em" y="-0.1em" x="0" class="text-outer-tspan"><tspan font-weight="normal" class="text-inner-tspan" font-style="normal">Términos</tspan></tspan></text></g></g></g><g transform="translate(128.66536409077173, 56.78381432495667)" class="mindmap-node section-0"><g><path d="M0 32.8 v-27.799999999999997 q0,-5 5,-5 h67.36666488647461 q5,0 5,5 v32.8 H0 Z" class="node-bkg node-no-border" id="node-3"></path><line y2="37.8" x2="77.36666488647461" y1="37.8" x1="0" class="node-line-0"></line></g><g transform="translate(38.683332443237305, 5)" text-anchor="middle" dominant-baseline="middle" alignment-baseline="middle" dy="1em"><g><rect class="background"></rect><text y="-10.1"><tspan dy="1.1em" y="-0.1em" x="0" class="text-outer-tspan"><tspan font-weight="normal" class="text-inner-tspan" font-style="normal">Modelos</tspan></tspan></text></g></g></g><g transform="translate(15, 150.0104622415572)" class="mindmap-node section-0"><g><path d="M0 32.8 v-27.799999999999997 q0,-5 5,-5 h136.5999984741211 q5,0 5,5 v32.8 H0 Z" class="node-bkg node-no-border" id="node-4"></path><line y2="37.8" x2="146.5999984741211" y1="37.8" x1="0" class="node-line-0"></line></g><g transform="translate(73.29999923706055, 5)" text-anchor="middle" dominant-baseline="middle" alignment-baseline="middle" dy="1em"><g><rect class="background"></rect><text y="-10.1"><tspan dy="1.1em" y="-0.1em" x="0" class="text-outer-tspan"><tspan font-weight="normal" class="text-inner-tspan" font-style="normal">SO</tspan><tspan font-weight="normal" class="text-inner-tspan" font-style="normal"> y</tspan><tspan font-weight="normal" class="text-inner-tspan" font-style="normal"> Arquitectura</tspan></tspan></text></g></g></g><g transform="translate(454.8104039179394, 103.61970246950705)" class="mindmap-node section-1"><g><path d="M0 32.8 v-27.799999999999997 q0,-5 5,-5 h78.26667022705078 q5,0 5,5 v32.8 H0 Z" class="node-bkg node-no-border" id="node-5"></path><line y2="37.8" x2="88.26667022705078" y1="37.8" x1="0" class="node-line-1"></line></g><g transform="translate(44.13333511352539, 5)" text-anchor="middle" dominant-baseline="middle" alignment-baseline="middle" dy="1em"><g><rect class="background"></rect><text y="-10.1"><tspan dy="1.1em" y="-0.1em" x="0" class="text-outer-tspan"><tspan font-weight="normal" class="text-inner-tspan" font-style="normal">Evolución</tspan></tspan></text></g></g></g><g transform="translate(571.0255326495411, 47.5462836614114)" class="mindmap-node section-1"><g><path d="M0 32.8 v-27.799999999999997 q0,-5 5,-5 h137.76667022705078 q5,0 5,5 v32.8 H0 Z" class="node-bkg node-no-border" id="node-6"></path><line y2="37.8" x2="147.76667022705078" y1="37.8" x1="0" class="node-line-1"></line></g><g transform="translate(73.88333511352539, 5)" text-anchor="middle" dominant-baseline="middle" alignment-baseline="middle" dy="1em"><g><rect class="background"></rect><text y="-10.1"><tspan dy="1.1em" y="-0.1em" x="0" class="text-outer-tspan"><tspan font-weight="normal" class="text-inner-tspan" font-style="normal">Multiprogramados</tspan></tspan></text></g></g></g><g transform="translate(421.2058387602418, 15)" class="mindmap-node section-1"><g><path d="M0 32.8 v-27.799999999999997 q0,-5 5,-5 h79.9000015258789 q5,0 5,5 v32.8 H0 Z" class="node-bkg node-no-border" id="node-7"></path><line y2="37.8" x2="89.9000015258789" y1="37.8" x1="0" class="node-line-1"></line></g><g transform="translate(44.95000076293945, 5)" text-anchor="middle" dominant-baseline="middle" alignment-baseline="middle" dy="1em"><g><rect class="background"></rect><text y="-10.1"><tspan dy="1.1em" y="-0.1em" x="0" class="text-outer-tspan"><tspan font-weight="normal" class="text-inner-tspan" font-style="normal">Eficiencia</tspan></tspan></text></g></g></g><g transform="translate(287.6651074543155, 274.1854565887228)" class="mindmap-node section-2"><g><path d="M0 32.8 v-27.799999999999997 q0,-5 5,-5 h162.46665954589844 q5,0 5,5 v32.8 H0 Z" class="node-bkg node-no-border" id="node-8"></path><line y2="37.8" x2="172.46665954589844" y1="37.8" x1="0" class="node-line-2"></line></g><g transform="translate(86.23332977294922, 5)" text-anchor="middle" dominant-baseline="middle" alignment-baseline="middle" dy="1em"><g><rect class="background"></rect><text y="-10.1"><tspan dy="1.1em" y="-0.1em" x="0" class="text-outer-tspan"><tspan font-weight="normal" class="text-inner-tspan" font-style="normal">Programas</tspan><tspan font-weight="normal" class="text-inner-tspan" font-style="normal"> y</tspan><tspan font-weight="normal" class="text-inner-tspan" font-style="normal"> Procesos</tspan></tspan></text></g></g></g><g transform="translate(360.52581285244503, 366.17292977875616)" class="mindmap-node section-2"><g><path d="M0 32.8 v-27.799999999999997 q0,-5 5,-5 h77.30000305175781 q5,0 5,5 v32.8 H0 Z" class="node-bkg node-no-border" id="node-9"></path><line y2="37.8" x2="87.30000305175781" y1="37.8" x1="0" class="node-line-2"></line></g><g transform="translate(43.650001525878906, 5)" text-anchor="middle" dominant-baseline="middle" alignment-baseline="middle" dy="1em"><g><rect class="background"></rect><text y="-10.1"><tspan dy="1.1em" y="-0.1em" x="0" class="text-outer-tspan"><tspan font-weight="normal" class="text-inner-tspan" font-style="normal">Programa</tspan></tspan></text></g></g></g><g transform="translate(515.0265898644581, 244.176858804008)" class="mindmap-node section-2"><g><path d="M0 32.8 v-27.799999999999997 q0,-5 5,-5 h86.94999694824219 q5,0 5,5 v32.8 H0 Z" class="node-bkg node-no-border" id="node-10"></path><line y2="37.8" x2="96.94999694824219" y1="37.8" x1="0" class="node-line-2"></line></g><g transform="translate(48.474998474121094, 5)" text-anchor="middle" dominant-baseline="middle" alignment-baseline="middle" dy="1em"><g><rect class="background"></rect><text y="-10.1"><tspan dy="1.1em" y="-0.1em" x="0" class="text-outer-tspan"><tspan font-weight="normal" class="text-inner-tspan" font-style="normal">Ejecutable</tspan></tspan></text></g></g></g><g transform="translate(185.45992915501677, 213.01936101163972)" class="mindmap-node section-2"><g><path d="M0 32.8 v-27.799999999999997 q0,-5 5,-5 h105.05000305175781 q5,0 5,5 v32.8 H0 Z" class="node-bkg node-no-border" id="node-11"></path><line y2="37.8" x2="115.05000305175781" y1="37.8" x1="0" class="node-line-2"></line></g><g transform="translate(57.525001525878906, 5)" text-anchor="middle" dominant-baseline="middle" alignment-baseline="middle" dy="1em"><g><rect class="background"></rect><text y="-10.1"><tspan dy="1.1em" y="-0.1em" x="0" class="text-outer-tspan"><tspan font-weight="normal" class="text-inner-tspan" font-style="normal">Concurrentes</tspan></tspan></text></g></g></g><g transform="translate(152.09859970212472, 288.98170970517583)" class="mindmap-node section-2"><g><path d="M0 32.8 v-27.799999999999997 q0,-5 5,-5 h65.51666641235352 q5,0 5,5 v32.8 H0 Z" class="node-bkg node-no-border" id="node-12"></path><line y2="37.8" x2="75.51666641235352" y1="37.8" x1="0" class="node-line-2"></line></g><g transform="translate(37.75833320617676, 5)" text-anchor="middle" dominant-baseline="middle" alignment-baseline="middle" dy="1em"><g><rect class="background"></rect><text y="-10.1"><tspan dy="1.1em" y="-0.1em" x="0" class="text-outer-tspan"><tspan font-weight="normal" class="text-inner-tspan" font-style="normal">Sistema</tspan></tspan></text></g></g></g><g transform="translate(483.6583883368229, 325.9128687674339)" class="mindmap-node section-2"><g><path d="M0 32.8 v-27.799999999999997 q0,-5 5,-5 h71.16666793823242 q5,0 5,5 v32.8 H0 Z" class="node-bkg node-no-border" id="node-13"></path><line y2="37.8" x2="81.16666793823242" y1="37.8" x1="0" class="node-line-2"></line></g><g transform="translate(40.58333396911621, 5)" text-anchor="middle" dominant-baseline="middle" alignment-baseline="middle" dy="1em"><g><rect class="background"></rect><text y="-10.1"><tspan dy="1.1em" y="-0.1em" x="0" class="text-outer-tspan"><tspan font-weight="normal" class="text-inner-tspan" font-style="normal">Procesos</tspan></tspan></text></g></g></g><g transform="translate(243.88788964688922, 348.8418826409094)" class="mindmap-node section-2"><g><path d="M0 32.8 v-27.799999999999997 q0,-5 5,-5 h72.5999984741211 q5,0 5,5 v32.8 H0 Z" class="node-bkg node-no-border" id="node-14"></path><line y2="37.8" x2="82.5999984741211" y1="37.8" x1="0" class="node-line-2"></line></g><g transform="translate(41.29999923706055, 5)" text-anchor="middle" dominant-baseline="middle" alignment-baseline="middle" dy="1em"><g><rect class="background"></rect><text y="-10.1"><tspan dy="1.1em" y="-0.1em" x="0" class="text-outer-tspan"><tspan font-weight="normal" class="text-inner-tspan" font-style="normal">Servicios</tspan></tspan></text></g></g></g><g transform="translate(561.7438647227563, 170.97051782154074)" class="mindmap-node section-3"><g><path d="M0 32.8 v-27.799999999999997 q0,-5 5,-5 h153.39999389648438 q5,0 5,5 v32.8 H0 Z" class="node-bkg node-no-border" id="node-15"></path><line y2="37.8" x2="163.39999389648438" y1="37.8" x1="0" class="node-line-3"></line></g><g transform="translate(81.69999694824219, 5)" text-anchor="middle" dominant-baseline="middle" alignment-baseline="middle" dy="1em"><g><rect class="background"></rect><text y="-10.1"><tspan dy="1.1em" y="-0.1em" x="0" class="text-outer-tspan"><tspan font-weight="normal" class="text-inner-tspan" font-style="normal">Gestión</tspan><tspan font-weight="normal" class="text-inner-tspan" font-style="normal"> de</tspan><tspan font-weight="normal" class="text-inner-tspan" font-style="normal"> Recursos</tspan></tspan></text></g></g></g></g></g><defs><style id="svg-pan-zoom-controls-styles" type="text/css">.svg-pan-zoom-control { cursor: pointer; fill: black; fill-opacity: 0.333; } .svg-pan-zoom-control:hover { fill-opacity: 0.8; } .svg-pan-zoom-control-background { fill: white; fill-opacity: 0.5; } .svg-pan-zoom-control-background { fill-opacity: 0.8; }</style></defs><g id="svg-pan-zoom-controls" transform="translate(1046 687) scale(0.75)" class="svg-pan-zoom-control"><g id="svg-pan-zoom-zoom-in" transform="translate(30.5 5) scale(0.015)" class="svg-pan-zoom-control"><rect x="0" y="0" width="1500" height="1400" class="svg-pan-zoom-control-background"></rect><path d="M1280 576v128q0 26 -19 45t-45 19h-320v320q0 26 -19 45t-45 19h-128q-26 0 -45 -19t-19 -45v-320h-320q-26 0 -45 -19t-19 -45v-128q0 -26 19 -45t45 -19h320v-320q0 -26 19 -45t45 -19h128q26 0 45 19t19 45v320h320q26 0 45 19t19 45zM1536 1120v-960 q0 -119 -84.5 -203.5t-203.5 -84.5h-960q-119 0 -203.5 84.5t-84.5 203.5v960q0 119 84.5 203.5t203.5 84.5h960q119 0 203.5 -84.5t84.5 -203.5z" class="svg-pan-zoom-control-element"></path></g><g id="svg-pan-zoom-reset-pan-zoom" transform="translate(5 35) scale(0.4)" class="svg-pan-zoom-control"><rect x="2" y="2" width="182" height="58" class="svg-pan-zoom-control-background"></rect><path d="M33.051,20.632c-0.742-0.406-1.854-0.609-3.338-0.609h-7.969v9.281h7.769c1.543,0,2.701-0.188,3.473-0.562c1.365-0.656,2.048-1.953,2.048-3.891C35.032,22.757,34.372,21.351,33.051,20.632z" class="svg-pan-zoom-control-element"></path><path d="M170.231,0.5H15.847C7.102,0.5,0.5,5.708,0.5,11.84v38.861C0.5,56.833,7.102,61.5,15.847,61.5h154.384c8.745,0,15.269-4.667,15.269-10.798V11.84C185.5,5.708,178.976,0.5,170.231,0.5z M42.837,48.569h-7.969c-0.219-0.766-0.375-1.383-0.469-1.852c-0.188-0.969-0.289-1.961-0.305-2.977l-0.047-3.211c-0.03-2.203-0.41-3.672-1.142-4.406c-0.732-0.734-2.103-1.102-4.113-1.102h-7.05v13.547h-7.055V14.022h16.524c2.361,0.047,4.178,0.344,5.45,0.891c1.272,0.547,2.351,1.352,3.234,2.414c0.731,0.875,1.31,1.844,1.737,2.906s0.64,2.273,0.64,3.633c0,1.641-0.414,3.254-1.242,4.84s-2.195,2.707-4.102,3.363c1.594,0.641,2.723,1.551,3.387,2.73s0.996,2.98,0.996,5.402v2.32c0,1.578,0.063,2.648,0.19,3.211c0.19,0.891,0.635,1.547,1.333,1.969V48.569z M75.579,48.569h-26.18V14.022h25.336v6.117H56.454v7.336h16.781v6H56.454v8.883h19.125V48.569z M104.497,46.331c-2.44,2.086-5.887,3.129-10.34,3.129c-4.548,0-8.125-1.027-10.731-3.082s-3.909-4.879-3.909-8.473h6.891c0.224,1.578,0.662,2.758,1.316,3.539c1.196,1.422,3.246,2.133,6.15,2.133c1.739,0,3.151-0.188,4.236-0.562c2.058-0.719,3.087-2.055,3.087-4.008c0-1.141-0.504-2.023-1.512-2.648c-1.008-0.609-2.607-1.148-4.796-1.617l-3.74-0.82c-3.676-0.812-6.201-1.695-7.576-2.648c-2.328-1.594-3.492-4.086-3.492-7.477c0-3.094,1.139-5.664,3.417-7.711s5.623-3.07,10.036-3.07c3.685,0,6.829,0.965,9.431,2.895c2.602,1.93,3.966,4.73,4.093,8.402h-6.938c-0.128-2.078-1.057-3.555-2.787-4.43c-1.154-0.578-2.587-0.867-4.301-0.867c-1.907,0-3.428,0.375-4.565,1.125c-1.138,0.75-1.706,1.797-1.706,3.141c0,1.234,0.561,2.156,1.682,2.766c0.721,0.406,2.25,0.883,4.589,1.43l6.063,1.43c2.657,0.625,4.648,1.461,5.975,2.508c2.059,1.625,3.089,3.977,3.089,7.055C108.157,41.624,106.937,44.245,104.497,46.331z M139.61,48.569h-26.18V14.022h25.336v6.117h-18.281v7.336h16.781v6h-16.781v8.883h19.125V48.569z M170.337,20.14h-10.336v28.43h-7.266V20.14h-10.383v-6.117h27.984V20.14z" class="svg-pan-zoom-control-element"></path></g><g id="svg-pan-zoom-zoom-out" transform="translate(30.5 70) scale(0.015)" class="svg-pan-zoom-control"><rect x="0" y="0" width="1500" height="1400" class="svg-pan-zoom-control-background"></rect><path d="M1280 576v128q0 26 -19 45t-45 19h-896q-26 0 -45 -19t-19 -45v-128q0 -26 19 -45t45 -19h896q26 0 45 19t19 45zM1536 1120v-960q0 -119 -84.5 -203.5t-203.5 -84.5h-960q-119 0 -203.5 84.5t-84.5 203.5v960q0 119 84.5 203.5t203.5 84.5h960q119 0 203.5 -84.5 t84.5 -203.5z" class="svg-pan-zoom-control-element"></path></g></g></svg>